<svg width="146" height="28" viewBox="0 0 146 28" fill="none" xmlns="http://www.w3.org/2000/svg">
<g clip-path="url(#clip0_1_99)">
<path d="M0 23.7104V3.54883H5.48889C9.2135 3.54883 11.5659 5.84966 11.5659 9.00845C11.5659 10.7243 11.0562 11.8162 9.76239 12.9082C11.7227 14.0001 12.7813 15.56 12.7813 17.8218C12.7813 21.4095 10.076 23.6714 6.39063 23.6714H0V23.7104ZM5.37128 11.9332C7.3708 11.9332 8.58618 10.9973 8.58618 9.08642C8.58618 7.13657 7.3708 6.23964 5.17525 6.23964H2.94047V11.9332H5.37128ZM6.1162 20.9806C8.23333 20.9806 9.80157 19.7717 9.80157 17.8218C9.80157 16.4569 8.86065 14.624 6.19459 14.624H2.94047V20.9806H6.1162Z" fill="white"/>
<path d="M23.3277 24.0613C19.0542 24.0613 15.2512 20.4346 15.2512 16.1839C15.2512 11.5822 18.8974 8.18945 23.5238 8.18945C27.7188 8.18945 31.6394 11.4652 31.6003 16.2619C31.5611 20.2786 28.1893 24.0613 23.3277 24.0613ZM23.4061 10.8022C20.5441 10.8022 18.1133 13.1811 18.1133 16.1449C18.1133 18.9917 20.5049 21.4875 23.3669 21.4875C26.3466 21.4875 28.7774 19.1476 28.7774 16.1059C28.7774 13.1421 26.3858 10.8022 23.4061 10.8022Z" fill="white"/>
<path d="M42.2252 24.0613C37.9517 24.0613 34.1487 20.4346 34.1487 16.1839C34.1487 11.5822 37.7949 8.18945 42.4211 8.18945C46.6163 8.18945 50.5369 11.4652 50.4978 16.2619C50.4584 20.2786 47.0475 24.0613 42.2252 24.0613ZM42.3034 10.8022C39.4415 10.8022 37.0108 13.1811 37.0108 16.1449C37.0108 18.9917 39.4024 21.4875 42.2643 21.4875C45.2439 21.4875 47.675 19.1476 47.675 16.1059C47.6355 13.1421 45.2834 10.8022 42.3034 10.8022Z" fill="white"/>
<path d="M70.0223 17.3928C70.6889 19.8886 72.6884 21.4875 75.0018 21.4875C76.7659 21.4875 78.4517 20.5516 79.3142 18.9527H82.1765C81.0001 22.0724 78.1382 24.0613 74.8841 24.0613C70.6107 24.0613 67.1604 20.3176 67.1604 16.2619C67.1604 11.5042 70.7675 8.18945 74.8055 8.18945C79.2751 8.18945 82.6469 11.6212 82.6469 15.9499C82.6469 16.4178 82.6469 16.8468 82.5687 17.3538H70.0223V17.3928ZM79.785 15.2089C79.5496 12.6351 77.3148 10.8022 74.845 10.8022C72.5316 10.8022 70.1795 12.6351 69.9832 15.2089H79.785Z" fill="white"/>
<path d="M85.9009 23.7104V8.61849H88.5669V9.98338H88.606C89.2726 8.96947 90.4491 8.30653 92.4485 8.22852V11.1533C89.9783 11.2313 88.7237 12.7132 88.7237 15.248V23.7104H85.9009Z" fill="white"/>
<path d="M54.0654 23.7104V3.54883H56.9278V23.6714H54.0654V23.7104ZM63.0047 23.7104L55.9867 15.911L62.338 8.30651H65.7098L59.2799 15.716L66.5723 23.6714H63.0047V23.7104Z" fill="white"/>
<path d="M132.321 28H110.993C103.622 28 97.663 21.7215 97.663 14C97.663 6.27853 103.622 0 110.993 0H132.321C139.692 0 145.652 6.27853 145.652 14C145.652 21.7604 139.692 28 132.321 28Z" fill="white"/>
<path d="M117.894 16.1839C119.932 14.0781 120.638 12.6742 120.638 10.6074C120.638 6.98061 117.854 4.13379 114.286 4.13379C111.111 4.13379 107.817 6.35664 107.856 10.9973V11.8942H111.424V10.9583C111.424 8.93046 112.718 7.68256 114.325 7.68256C115.776 7.68256 117.188 8.85245 117.188 10.4903C117.188 10.9973 117.109 11.8943 115.737 13.2591L108.523 20.2007C108.092 20.6296 107.856 21.1756 107.856 21.7605V23.8274H120.638V20.3176H113.777L117.894 16.1839Z" fill="black"/>
<path d="M128.597 9.86642C127.93 9.86642 127.381 9.86642 126.872 10.0614L127.264 7.79956H133.968V4.28979H124.127L122.598 12.9082C122.441 13.8831 122.324 14.5071 122.324 14.5071L125.46 15.248C125.46 15.248 125.656 14.8191 126.166 14.2341C126.637 13.6882 127.342 13.3761 128.44 13.3761C130.047 13.3761 131.851 14.7411 131.851 16.8079C131.851 18.7578 130.4 20.3177 128.401 20.3567C126.676 20.4347 125.264 19.1088 124.676 17.9388L121.775 19.6937C123.186 22.3455 125.735 23.8664 128.401 23.8664C132.086 23.8664 135.419 20.9026 135.38 16.6909C135.419 12.8692 131.969 9.86642 128.597 9.86642Z" fill="black"/>
</g>
<defs>
<clipPath id="clip0_1_99">
<rect width="145.833" height="28" fill="white"/>
</clipPath>
</defs>
</svg>
