<svg width="250" height="40" viewBox="0 0 250 40" fill="none" xmlns="http://www.w3.org/2000/svg">
<path d="M19.663 39.266C16.907 39.266 14.3453 38.789 11.978 37.835C9.61067 36.8457 7.526 35.4853 5.724 33.754C3.922 31.9873 2.50867 29.9557 1.484 27.659C0.494667 25.327 0 22.8183 0 20.133C0 17.4477 0.494667 14.9567 1.484 12.66C2.50867 10.328 3.90433 8.29633 5.671 6.565C7.43767 4.79833 9.50467 3.438 11.872 2.484C14.2747 1.49467 16.8363 1 19.557 1C22.631 1 25.5283 1.61833 28.249 2.855C30.9697 4.05633 33.2133 5.75233 34.98 7.943L29.627 12.872C28.355 11.282 26.8533 10.0807 25.122 9.268C23.3907 8.45533 21.5357 8.049 19.557 8.049C17.8963 8.049 16.3593 8.367 14.946 9.003C13.5327 9.60367 12.296 10.4517 11.236 11.547C10.176 12.607 9.34567 13.879 8.745 15.363C8.17967 16.8117 7.897 18.4017 7.897 20.133C7.897 21.8643 8.19733 23.472 8.798 24.956C9.39867 26.44 10.229 27.7297 11.289 28.825C12.3843 29.885 13.6387 30.733 15.052 31.369C16.5007 31.9697 18.073 32.27 19.769 32.27C21.5357 32.27 23.1257 31.952 24.539 31.316C25.9523 30.6447 27.136 29.726 28.09 28.56C29.0793 27.3587 29.733 26.016 30.051 24.532H19.08V17.854H38.266V20.186C38.266 22.942 37.789 25.486 36.835 27.818C35.9163 30.1147 34.6267 32.1287 32.966 33.86C31.3053 35.556 29.3443 36.881 27.083 37.835C24.8217 38.789 22.3483 39.266 19.663 39.266Z" fill="white"/>
<path d="M57.0001 38.673C54.2441 38.673 51.7531 38.037 49.5271 36.765C47.3011 35.493 45.5344 33.7793 44.2271 31.624C42.9198 29.4687 42.2661 27.0483 42.2661 24.363C42.2661 21.6777 42.9021 19.2573 44.1741 17.102C45.4814 14.9113 47.2481 13.18 49.4741 11.908C51.7354 10.636 54.2441 10 57.0001 10C59.7561 10 62.2471 10.636 64.4731 11.908C66.7344 13.18 68.5011 14.9113 69.7731 17.102C71.0804 19.2573 71.7341 21.6777 71.7341 24.363C71.7341 27.0483 71.0804 29.4687 69.7731 31.624C68.5011 33.7793 66.7521 35.493 64.5261 36.765C62.3001 38.037 59.7914 38.673 57.0001 38.673ZM57.0001 32.366C58.4488 32.366 59.7384 32.0127 60.8691 31.306C62.0351 30.5993 62.9538 29.6453 63.6251 28.444C64.3318 27.2073 64.6851 25.847 64.6851 24.363C64.6851 22.8437 64.3318 21.4833 63.6251 20.282C62.9538 19.0807 62.0351 18.1267 60.8691 17.42C59.7384 16.678 58.4488 16.307 57.0001 16.307C55.5868 16.307 54.2971 16.678 53.1311 17.42C51.9651 18.1267 51.0464 19.0807 50.3751 20.282C49.7038 21.4833 49.3681 22.8437 49.3681 24.363C49.3681 25.847 49.7038 27.2073 50.3751 28.444C51.0464 29.6453 51.9651 30.5993 53.1311 31.306C54.2971 32.0127 55.5868 32.366 57.0001 32.366Z" fill="white"/>
<path d="M75.7339 39V2H85.5752L95.7339 31.2191L105.893 2H115.734V39H108.485V11.7786L99.507 39H91.952L82.8238 11.6729V39H75.7339Z" fill="white"/>
<path fill-rule="evenodd" clip-rule="evenodd" d="M138.305 16.5275C138.305 16.8037 138.081 17.0275 137.805 17.0275H120.234C119.958 17.0275 119.734 16.8037 119.734 16.5275V10.8C119.734 10.5239 119.958 10.3 120.234 10.3H137.805C138.081 10.3 138.305 10.5239 138.305 10.8V16.5275ZM149.734 27.1638C149.734 27.4399 149.51 27.6638 149.234 27.6638H120.234C119.958 27.6638 119.734 27.4399 119.734 27.1638V21.4363C119.734 21.1602 119.958 20.9363 120.234 20.9363H149.234C149.51 20.9363 149.734 21.1602 149.734 21.4363V27.1638ZM148.948 38.3C149.224 38.3 149.448 38.0762 149.448 37.8L149.448 32.0726C149.448 31.7964 149.224 31.5726 148.948 31.5726H134.234C133.958 31.5726 133.734 31.7964 133.734 32.0726L133.734 37.8C133.734 38.0762 133.958 38.3 134.234 38.3H148.948Z" fill="#FF512F"/>
<path d="M167.779 38.69C165.164 38.69 162.797 38.054 160.677 36.782C158.557 35.51 156.861 33.814 155.589 31.694C154.352 29.5387 153.734 27.136 153.734 24.486C153.734 21.836 154.352 19.451 155.589 17.331C156.861 15.1757 158.575 13.4797 160.73 12.243C162.885 10.971 165.306 10.335 167.991 10.335C169.369 10.335 170.694 10.5293 171.966 10.918C173.238 11.2713 174.422 11.8013 175.517 12.508V1.219L182.778 0V38.319H175.623V36.04C173.362 37.8067 170.747 38.69 167.779 38.69ZM168.945 32.489C170.288 32.489 171.507 32.277 172.602 31.853C173.733 31.3937 174.704 30.7223 175.517 29.839V19.08C174.704 18.2673 173.733 17.6313 172.602 17.172C171.471 16.7127 170.252 16.483 168.945 16.483C167.426 16.483 166.048 16.8363 164.811 17.543C163.61 18.2143 162.656 19.1683 161.949 20.405C161.242 21.6063 160.889 22.9667 160.889 24.486C160.889 26.0053 161.242 27.3657 161.949 28.567C162.656 29.7683 163.61 30.7223 164.811 31.429C166.048 32.1357 167.426 32.489 168.945 32.489Z" fill="white"/>
<path d="M200.823 38.69C198.208 38.69 195.841 38.054 193.721 36.782C191.601 35.51 189.905 33.814 188.633 31.694C187.396 29.5387 186.778 27.136 186.778 24.486C186.778 21.836 187.396 19.451 188.633 17.331C189.905 15.1757 191.618 13.4797 193.774 12.243C195.929 10.971 198.349 10.335 201.035 10.335C202.413 10.335 203.738 10.5293 205.01 10.918C206.282 11.2713 207.466 11.8013 208.561 12.508V1.219L215.822 0V38.319H208.667V36.04C206.405 37.8067 203.791 38.69 200.823 38.69ZM201.989 32.489C203.331 32.489 204.55 32.277 205.646 31.853C206.776 31.3937 207.748 30.7223 208.561 29.839V19.08C207.748 18.2673 206.776 17.6313 205.646 17.172C204.515 16.7127 203.296 16.483 201.989 16.483C200.469 16.483 199.091 16.8363 197.855 17.543C196.653 18.2143 195.699 19.1683 194.993 20.405C194.286 21.6063 193.933 22.9667 193.933 24.486C193.933 26.0053 194.286 27.3657 194.993 28.567C195.699 29.7683 196.653 30.7223 197.855 31.429C199.091 32.1357 200.469 32.489 201.989 32.489Z" fill="white"/>
<path d="M234.556 38.673C231.8 38.673 229.309 38.037 227.083 36.765C224.857 35.493 223.09 33.7793 221.783 31.624C220.475 29.4687 219.822 27.0483 219.822 24.363C219.822 21.6777 220.458 19.2573 221.73 17.102C223.037 14.9113 224.804 13.18 227.03 11.908C229.291 10.636 231.8 10 234.556 10C237.312 10 239.803 10.636 242.029 11.908C244.29 13.18 246.057 14.9113 247.329 17.102C248.636 19.2573 249.29 21.6777 249.29 24.363C249.29 27.0483 248.636 29.4687 247.329 31.624C246.057 33.7793 244.308 35.493 242.082 36.765C239.856 38.037 237.347 38.673 234.556 38.673ZM234.556 32.366C236.004 32.366 237.294 32.0127 238.425 31.306C239.591 30.5993 240.509 29.6453 241.181 28.444C241.887 27.2073 242.241 25.847 242.241 24.363C242.241 22.8437 241.887 21.4833 241.181 20.282C240.509 19.0807 239.591 18.1267 238.425 17.42C237.294 16.678 236.004 16.307 234.556 16.307C233.142 16.307 231.853 16.678 230.687 17.42C229.521 18.1267 228.602 19.0807 227.931 20.282C227.259 21.4833 226.924 22.8437 226.924 24.363C226.924 25.847 227.259 27.2073 227.931 28.444C228.602 29.6453 229.521 30.5993 230.687 31.306C231.853 32.0127 233.142 32.366 234.556 32.366Z" fill="white"/>
</svg>
